<?xml version="1.0" ?><svg enable-background="new 0 0 32 32" version="1.1" viewBox="0 0 32 32" xml:space="preserve" xmlns="http://www.w3.org/2000/svg" xmlns:xlink="http://www.w3.org/1999/xlink"><g id="Filled"><g><path d="M1.002,16.047v-4.292c0,0,0.875-2.792,4.208-2.792s22.167,0,22.167,0s3.583,0.667,3.583,2.333    s0,4.542,0,4.542L1.002,16.047z" fill="#DDDDDD"/></g><g><path d="M1.127,16.255v10.062c0,0-0.375,3.75,3.125,3.75s22.125,0,22.125,0s4.937-0.188,4.937-3.375    s0-10.812,0-10.812L1.127,16.255z" fill="#FFFFFF"/></g><g><g><path d="M23.724,9.278h-2V5.045c0-0.562-0.448-1.021-1-1.021h-9.447c-0.552,0-1,0.458-1,1.021v4.233h-2V5.045     c0-1.665,1.346-3.021,3-3.021h9.447c1.654,0,3,1.355,3,3.021V9.278z"/></g></g><g><path d="M28,9.96c1.103,0,2,0.897,2,2v15.015c0,1.103-0.897,2-2,2H4c-1.103,0-2-0.897-2-2V11.96c0-1.103,0.897-2,2-2H28 M28,7.96    H4c-2.2,0-4,1.8-4,4v15.015c0,2.2,1.8,4,4,4h24c2.2,0,4-1.8,4-4V11.96C32,9.76,30.2,7.96,28,7.96L28,7.96z"/></g><g><rect height="2" width="30" x="1.126" y="14.661"/></g><g><rect height="5.625" width="2" x="15.126" y="12.849"/></g></g></svg>