<?xml version="1.0" encoding="UTF-8"?>
<svg xmlns="http://www.w3.org/2000/svg" xmlns:xlink="http://www.w3.org/1999/xlink" width="32px" height="32px" viewBox="0 0 32 32" version="1.1">
<g id="surface1">
<path style=" stroke:none;fill-rule:nonzero;fill:rgb(0%,0%,0%);fill-opacity:1;" d="M 16.011719 8.414062 L 4.589844 17.828125 C 4.589844 17.839844 4.585938 17.859375 4.582031 17.886719 C 4.574219 17.914062 4.570312 17.933594 4.570312 17.945312 L 4.570312 27.480469 C 4.570312 27.824219 4.695312 28.121094 4.949219 28.375 C 5.199219 28.625 5.496094 28.75 5.839844 28.75 L 13.46875 28.75 L 13.46875 21.125 L 18.554688 21.125 L 18.554688 28.75 L 26.179688 28.75 C 26.523438 28.75 26.820312 28.625 27.074219 28.375 C 27.324219 28.121094 27.449219 27.824219 27.449219 27.480469 L 27.449219 17.945312 C 27.449219 17.894531 27.445312 17.855469 27.429688 17.828125 Z M 16.011719 8.414062 "/>
<path style=" stroke:none;fill-rule:nonzero;fill:rgb(0%,0%,0%);fill-opacity:1;" d="M 31.800781 15.683594 L 27.449219 12.066406 L 27.449219 3.964844 C 27.449219 3.777344 27.390625 3.625 27.269531 3.507812 C 27.152344 3.386719 27 3.328125 26.816406 3.328125 L 23 3.328125 C 22.816406 3.328125 22.664062 3.386719 22.542969 3.507812 C 22.425781 3.625 22.367188 3.777344 22.367188 3.964844 L 22.367188 7.835938 L 17.519531 3.785156 C 17.097656 3.441406 16.59375 3.269531 16.011719 3.269531 C 15.429688 3.269531 14.925781 3.441406 14.5 3.785156 L 0.21875 15.683594 C 0.0898438 15.789062 0.015625 15.929688 0.00390625 16.109375 C -0.0117188 16.289062 0.0351562 16.445312 0.140625 16.578125 L 1.371094 18.046875 C 1.480469 18.164062 1.617188 18.238281 1.789062 18.265625 C 1.949219 18.277344 2.109375 18.230469 2.265625 18.125 L 16.011719 6.664062 L 29.753906 18.125 C 29.859375 18.21875 30 18.265625 30.171875 18.265625 L 30.230469 18.265625 C 30.402344 18.238281 30.542969 18.164062 30.648438 18.046875 L 31.878906 16.578125 C 31.984375 16.445312 32.03125 16.289062 32.019531 16.109375 C 32.003906 15.929688 31.933594 15.789062 31.800781 15.683594 Z M 31.800781 15.683594 "/>
</g>
</svg>
