<?xml version="1.0" standalone="no"?>
<!DOCTYPE svg PUBLIC "-//W3C//DTD SVG 20010904//EN"
 "http://www.w3.org/TR/2001/REC-SVG-20010904/DTD/svg10.dtd">
<svg version="1.0" xmlns="http://www.w3.org/2000/svg"
 width="200.000000pt" height="200.000000pt" viewBox="0 0 200.000000 200.000000"
 preserveAspectRatio="xMidYMid meet">

<g transform="translate(0.000000,200.000000) scale(0.100000,-0.100000)"
fill="#000000" stroke="none">
<path d="M855 1590 l-176 -211 73 -68 c40 -37 88 -81 106 -97 l33 -29 -70 -72
-70 -73 -97 10 -96 10 -87 -79 c-123 -112 -191 -187 -191 -209 0 -10 18 -63
40 -118 l41 -99 -72 -146 c-74 -152 -80 -181 -37 -195 18 -5 14 -13 -46 -73
-36 -36 -66 -70 -66 -74 0 -9 1745 -5 1754 4 3 3 5 393 4 867 l-3 862 -235
-233 c-377 -372 -470 -462 -470 -455 0 4 19 29 43 55 23 27 82 97 130 156 l89
107 -69 64 c-157 145 -338 306 -345 306 -4 0 -86 -95 -183 -210z m175 -534
l52 -49 -193 -193 c-107 -107 -197 -194 -200 -194 -3 0 -9 48 -12 107 -8 144
-2 140 -172 117 l-40 -6 60 61 60 61 104 -6 104 -7 81 85 c47 50 86 83 92 80
7 -4 35 -29 64 -56z m-448 -377 c3 -71 6 -83 28 -101 l24 -19 -150 -150 c-82
-82 -152 -149 -156 -149 -4 0 25 66 64 146 l71 145 -36 90 c-19 49 -34 89 -34
90 3 1 160 26 173 28 8 1 13 -27 16 -80z"/>
<path d="M613 1218 c-33 -16 -48 -61 -33 -98 15 -36 37 -50 77 -50 77 1 106
99 41 144 -26 18 -53 19 -85 4z"/>
</g>
</svg>
